<svg width="50" height="50" viewBox="0 0 50 50" fill="none" xmlns="http://www.w3.org/2000/svg">
<path d="M25.0977 20.5078C22.6744 20.5078 20.7031 22.4791 20.7031 24.9023C20.7031 27.3256 22.6744 29.2969 25.0977 29.2969C27.5209 29.2969 29.4922 27.3256 29.4922 24.9023C29.4922 22.4791 27.5209 20.5078 25.0977 20.5078Z" fill="#2196F3"/>
<path d="M24.9023 0C11.1709 0 0 11.1709 0 24.9023C0 38.6338 11.1709 50 24.9023 50C38.6338 50 50 38.6338 50 24.9023C50 11.1709 38.6338 0 24.9023 0ZM35.3516 32.2266C33.3718 32.2266 31.6258 31.2343 30.5647 29.727C29.2217 31.2472 27.2807 32.2266 25.0977 32.2266C21.0593 32.2266 17.7734 28.9407 17.7734 24.9023C17.7734 20.864 21.0593 17.5781 25.0977 17.5781C26.7527 17.5781 28.2643 18.1509 29.4922 19.0804V19.043C29.4922 18.2333 30.1474 17.5781 30.957 17.5781C31.7667 17.5781 32.4219 18.2333 32.4219 19.043C32.4219 22.3008 32.4219 23.1079 32.4219 26.3672C32.4219 27.9822 33.7365 29.2969 35.3516 29.2969C36.9666 29.2969 38.2812 27.9822 38.2812 26.3672C38.2812 16.5634 31.7938 11.7188 25.0977 11.7188C17.8278 11.7188 11.9141 17.6325 11.9141 24.9023C11.9141 32.1722 17.8278 38.0859 25.0977 38.0859C28.0273 38.0859 30.7982 37.1476 33.1114 35.3708C34.6565 34.1913 36.4259 36.5197 34.8967 37.6939C32.0657 39.8669 28.6782 41.0156 25.0977 41.0156C16.2128 41.0156 8.98438 33.7872 8.98438 24.9023C8.98438 16.0175 16.2128 8.78906 25.0977 8.78906C33.1931 8.78906 41.2109 14.7593 41.2109 26.3672C41.2109 29.5987 38.5831 32.2266 35.3516 32.2266Z" fill="#2196F3"/>
</svg>
