<svg width="50" height="50" viewBox="0 0 50 50" fill="none" xmlns="http://www.w3.org/2000/svg">
<path fill-rule="evenodd" clip-rule="evenodd" d="M50 25C50 38.8071 38.8071 50 25 50C11.1929 50 0 38.8071 0 25C0 11.1929 11.1929 0 25 0C38.8071 0 50 11.1929 50 25ZM29.8594 28.4219C32.2313 29.5813 34.8031 30.1688 37.5 30.1688C38.3625 30.1688 39.0625 30.8688 39.0625 31.7313V37.5C39.0625 38.3625 38.3625 39.0625 37.5 39.0625C22.8531 39.0625 10.9375 27.1469 10.9375 12.5C10.9375 11.6375 11.6375 10.9375 12.5 10.9375H18.2688C19.1313 10.9375 19.8313 11.6375 19.8313 12.5C19.8313 15.2 20.4188 17.7719 21.5813 20.1406C21.7625 20.5125 21.7875 20.9438 21.6531 21.3375C21.5156 21.7313 21.2312 22.0531 20.8562 22.2344L18.525 23.3594C20.4656 26.7344 23.2656 29.5375 26.6406 31.475L27.7656 29.1469C27.9469 28.775 28.2687 28.4875 28.6625 28.35C29.0562 28.2156 29.4875 28.2438 29.8594 28.4219Z" fill="#2196F3"/>
</svg>
