<svg width="50" height="50" viewBox="0 0 50 50" fill="none" xmlns="http://www.w3.org/2000/svg">
<g clip-path="url(#clip0)">
<path d="M13.5312 31.0212C13.5312 31.3472 13.2669 31.6115 12.9409 31.6115C12.6149 31.6115 12.3506 31.3472 12.3506 31.0212V18.5903C12.3506 18.2643 12.6149 18 12.9409 18H19.527C20.5537 18 21.4832 18.4163 22.156 19.0891C22.8288 19.7619 23.2451 20.6915 23.2451 21.7181C23.2451 22.7446 22.8288 23.6742 22.156 24.347C21.4832 25.02 20.5537 25.4362 19.527 25.4362H19.1627L23.0377 30.6708C23.2312 30.9318 23.1766 31.3004 22.9155 31.4939C22.6544 31.6875 22.2858 31.6327 22.0923 31.3717L17.5481 25.2332C17.4578 25.1296 17.4032 24.9941 17.4032 24.8459C17.4032 24.52 17.6676 24.2557 17.9935 24.2557H19.5269C20.2277 24.2557 20.8621 23.9715 21.3213 23.5124C21.7804 23.0533 22.0644 22.4189 22.0644 21.7181C22.0644 21.0173 21.7804 20.3829 21.3213 19.9237C20.8621 19.4645 20.2277 19.1805 19.5269 19.1805H13.5312V31.0212Z" fill="#231F20"/>
<path d="M25.5966 31.0212C25.5966 31.3472 25.3323 31.6115 25.0063 31.6115C24.6803 31.6115 24.416 31.3472 24.416 31.0212V18.5903C24.416 18.2643 24.6803 18 25.0063 18H31.5924C32.619 18 33.5487 18.4163 34.2214 19.0891C34.8943 19.7619 35.3105 20.6915 35.3105 21.7181C35.3105 22.7446 34.8941 23.6742 34.2214 24.347C33.5487 25.02 32.619 25.4362 31.5924 25.4362H31.228L35.103 30.6708C35.2966 30.9318 35.2418 31.3004 34.9809 31.4939C34.7198 31.6875 34.3512 31.6327 34.1576 31.3717L29.6135 25.2332C29.5232 25.1296 29.4686 24.9941 29.4686 24.8459C29.4686 24.52 29.7329 24.2557 30.059 24.2557H31.5924C32.2933 24.2557 32.9276 23.9715 33.3866 23.5124C33.8457 23.0534 34.13 22.4189 34.13 21.7181C34.13 21.0173 33.846 20.3829 33.3866 19.9237C32.9276 19.4647 32.2933 19.1805 31.5924 19.1805H25.5966V31.0212Z" fill="#231F20"/>
<path d="M37.7295 31.2817C37.5854 31.5733 37.2323 31.6931 36.9408 31.5491C36.6493 31.4052 36.5296 31.0521 36.6735 30.7605L42.8087 18.3297C42.9526 18.0381 43.3057 17.9184 43.5973 18.0622C43.7183 18.1219 43.8096 18.2175 43.8646 18.3297H43.8648L50 30.7607C50.1439 31.0523 50.0241 31.4054 49.7326 31.5493C49.4411 31.6933 49.0878 31.5735 48.9439 31.2819L43.3365 19.9207L37.7295 31.2817Z" fill="#231F20"/>
<path d="M0.590313 19.1805C0.264318 19.1805 0 18.9162 0 18.5903C0 18.2643 0.264318 18 0.590313 18H10.4549C10.7809 18 11.0451 18.2643 11.0451 18.5903C11.0451 18.9163 10.7808 19.1805 10.4549 19.1805H0.590313Z" fill="#231F20"/>
<path d="M0.590313 31.6116C0.264318 31.6116 0 31.3472 0 31.0213C0 30.6953 0.264318 30.431 0.590313 30.431H10.4549C10.7809 30.431 11.0451 30.6953 11.0451 31.0213C11.0451 31.3472 10.7808 31.6116 10.4549 31.6116H0.590313Z" fill="#231F20"/>
<path d="M0.590313 25.3961C0.264318 25.3961 0 25.1317 0 24.8057C0 24.4797 0.264318 24.2155 0.590313 24.2155H4.68056C5.00656 24.2155 5.27078 24.4798 5.27078 24.8057C5.27078 25.1317 5.00646 25.396 4.68056 25.396L0.590313 25.3961Z" fill="#0047BB"/>
<path d="M43.3366 26.6857L41.1011 31.6804H43.3366H45.5723L43.3366 26.6857Z" fill="#0047BB"/>
</g>
<defs>
<clipPath id="clip0">
<rect width="50" height="50" fill="white"/>
</clipPath>
</defs>
</svg>
