<svg width="50" height="50" viewBox="0 0 50 50" fill="none" xmlns="http://www.w3.org/2000/svg">
<path fill-rule="evenodd" clip-rule="evenodd" d="M25.3623 9L22.4638 14.7929L15.2174 29.9992L13.0435 34.3438H15.942C18.1159 30.7233 21.0145 27.8268 25.3623 27.8268C28.9855 27.8268 32.6087 30.7233 34.058 34.3438H36.9565L34.7826 29.9992L27.5362 14.7929L25.3623 9ZM25.3623 25.6545C26.8116 25.6545 28.9855 25.6545 31.1594 27.1027L25.3623 14.7929L19.5652 27.1027C21.0145 25.6545 23.1884 25.6545 25.3623 25.6545ZM0 19.1375H19.5652L20.2899 17.6893L0 18.4134V19.1375ZM0 31.4474H13.7681L13.0435 32.8956L0 32.1715V31.4474ZM50 31.4474H36.9565V32.8956L50 32.1715V31.4474ZM50 19.1375H31.1594L30.4348 17.6893L50 18.4134V19.1375Z" fill="#99CC33"/>
<path fill-rule="evenodd" clip-rule="evenodd" d="M41.1304 20.5857H48.3768V22.758H43.3043V24.2062H46.9275V26.3786H43.3043V28.5509H48.3768V29.9991H41.1304V28.5509V26.3786V24.2062V22.758V20.5857ZM32.4348 20.5857H40.4058V22.758H34.6087L37.5072 28.5509H38.2319V24.9303H36.7826V22.758H40.4058V23.4821V24.9303V28.5509V29.9991H36.058L32.4348 22.758V20.5857ZM4.17391 22.758V28.5509H4.89855V29.9991H4.17391H2.72464H2V28.5509H2.72464V22.758H2V20.5857H4.89855V22.758H4.17391ZM15.7681 20.5857V25.6545L14.3188 29.9991V24.9303L11.4203 29.9991H10.6957L7.7971 24.9303V29.9991H6.34783V20.5857H7.7971L10.6957 27.1027L14.3188 20.5857H15.7681Z" fill="black"/>
</svg>
