<svg width="50" height="50" viewBox="0 0 50 50" fill="none" xmlns="http://www.w3.org/2000/svg">
<g clip-path="url(#clip0)">
<path d="M12.7061 13.2966L34.7127 3.86188L25.6005 0.118545C25.2157 -0.0395148 24.7842 -0.0395148 24.3993 0.118545L2.51351 9.10945L12.7061 13.2966Z" fill="#1252B1"/>
<path d="M38.8084 5.54444L16.7951 14.9764L25 18.3471L47.4865 9.10947L38.8084 5.54444Z" fill="#1252B1"/>
<path d="M23.4193 21.1154L14.5139 17.457V24.3837C14.5139 25.2566 13.8062 25.9643 12.9333 25.9643C12.0605 25.9643 11.3528 25.2566 11.3528 24.3837V16.1583L1.0946 11.9442V39.7694C1.0946 40.4103 1.48165 40.9878 2.07457 41.2314L23.4193 50V21.1154Z" fill="#1252B1"/>
<path d="M26.5805 21.1154V50L47.9252 41.2314C48.5182 40.9879 48.9052 40.4103 48.9052 39.7694C48.9052 38.7058 48.9052 13.1084 48.9052 11.9442L26.5805 21.1154Z" fill="#1252B1"/>
</g>
<defs>
<clipPath id="clip0">
<rect width="50" height="50" fill="white"/>
</clipPath>
</defs>
</svg>
