<svg width="50" height="50" viewBox="0 0 50 50" fill="none" xmlns="http://www.w3.org/2000/svg">
<path d="M0 25.2579C0 29.0107 3.6645 32.5139 9.4416 34.4886C8.28794 40.2964 9.23497 44.9776 12.3977 46.8016C15.6486 48.6765 20.4917 47.3787 25.0886 43.3603C29.5695 47.2164 34.098 48.7339 37.258 46.9047C40.5059 45.0245 41.4936 40.0259 40.3081 34.0367C46.3254 32.0473 49.6913 29.0601 49.6913 25.2579C49.6913 21.5923 46.0202 18.4211 40.3208 16.4591C41.5971 10.2224 40.5157 5.65486 37.2219 3.75552C34.0464 1.92435 29.4652 3.52038 24.9185 7.47724C20.1882 3.27742 15.6523 1.99524 12.362 3.89985C9.18946 5.7363 8.28422 10.5027 9.4416 16.4179C3.85941 18.3641 0 21.6071 0 25.2579Z" fill="white"/>
<path d="M39.284 18.7259C38.8143 18.5648 38.3406 18.4156 37.8634 18.2783C37.9425 17.9567 38.0157 17.6337 38.0829 17.3094C39.1583 12.0893 38.4552 7.88401 36.0541 6.49969C33.752 5.17201 29.987 6.55633 26.1844 9.86537C25.8097 10.1922 25.4433 10.5284 25.0856 10.8737C24.8461 10.6441 24.6023 10.419 24.3544 10.1984C20.3692 6.65984 16.3746 5.16889 13.9761 6.55731C11.6762 7.8887 10.995 11.8422 11.9631 16.7893C12.0594 17.2792 12.1682 17.7666 12.2893 18.251C11.724 18.4115 11.1782 18.5826 10.6559 18.7646C5.98386 20.3934 3 22.9465 3 25.5944C3 28.3294 6.20299 31.0727 11.0696 32.7359C11.4642 32.8701 11.8621 32.9945 12.2629 33.1089C12.1327 33.6308 12.0171 34.1562 11.9162 34.6845C10.9932 39.5456 11.7141 43.4054 14.0079 44.7286C16.3772 46.0947 20.3536 44.6905 24.2257 41.3059C24.5317 41.0383 24.8389 40.7545 25.1465 40.4571C25.534 40.8309 25.9318 41.1938 26.3395 41.5455C30.0901 44.7729 33.7942 46.0762 36.0861 44.7495C38.4532 43.3792 39.2223 39.2327 38.2235 34.1878C38.1474 33.8025 38.0585 33.4089 37.9589 33.0082C38.2382 32.9257 38.5122 32.8406 38.7796 32.7519C43.8387 31.0758 47.1302 28.366 47.1302 25.5944C47.1302 22.9369 44.0502 20.3667 39.284 18.7259V18.7259Z" fill="#53C1DE"/>
<path d="M38.3015 31.0817C38.0603 31.1616 37.8127 31.2388 37.5604 31.3136C37.0018 29.5455 36.2479 27.6653 35.3257 25.723C36.2059 23.8266 36.9305 21.9706 37.4735 20.2138C37.9248 20.3447 38.3631 20.4824 38.7853 20.6279C42.8691 22.0335 45.36 24.1121 45.36 25.7136C45.36 27.4196 42.6697 29.6343 38.3017 31.0817H38.3015ZM36.4891 34.6732C36.9307 36.9039 36.9938 38.9209 36.7012 40.4975C36.4383 41.9143 35.9098 42.8588 35.2564 43.2371C33.8656 44.0421 30.8913 42.9957 27.684 40.2356C27.3163 39.9193 26.9458 39.5814 26.5743 39.224C27.8178 37.8639 29.0605 36.2827 30.2734 34.5269C32.4069 34.3377 34.4224 34.0281 36.2503 33.6057C36.3401 33.9689 36.4202 34.325 36.4891 34.6732V34.6732ZM18.1598 43.098C16.8011 43.5779 15.7189 43.5916 15.0648 43.2144C13.6727 42.4117 13.0942 39.3122 13.8834 35.1552C13.9773 34.6639 14.0847 34.1753 14.2057 33.69C16.0132 34.0898 18.0141 34.3775 20.1527 34.5509C21.3735 36.269 22.6522 37.8482 23.9408 39.2312C23.6669 39.4961 23.3866 39.7543 23.1 40.0054C21.3878 41.5022 19.672 42.5639 18.16 43.098H18.1598ZM11.7942 31.0712C9.64238 30.3357 7.86531 29.3799 6.6472 28.3369C5.55271 27.3995 5 26.4688 5 25.7136C5 24.1068 7.3958 22.0571 11.3915 20.664C11.8931 20.4899 12.3996 20.3305 12.9104 20.1861C13.4627 21.9823 14.1871 23.8604 15.0613 25.7595C14.1758 27.687 13.4411 29.5949 12.8837 31.4122C12.5178 31.3075 12.1545 31.1938 11.7942 31.0712V31.0712ZM13.9281 16.5464C13.0987 12.3077 13.6494 9.11039 15.0355 8.30808C16.512 7.45342 19.7765 8.67212 23.2174 11.7273C23.4373 11.9226 23.6582 12.1271 23.8795 12.3386C22.5975 13.7153 21.3306 15.2826 20.1203 16.9907C18.0448 17.1831 16.0579 17.4921 14.2315 17.9059C14.1189 17.4553 14.0178 17.0019 13.9281 16.5462V16.5464ZM32.9639 21.2468C32.5325 20.5016 32.085 19.7658 31.6219 19.0399C33.0301 19.2176 34.379 19.4539 35.6458 19.7431C35.2655 20.962 34.7915 22.2366 34.2334 23.5432C33.8255 22.7693 33.4023 22.0037 32.9639 21.2468V21.2468ZM25.2011 13.6858C26.0706 14.6277 26.9415 15.6796 27.7981 16.8208C26.0605 16.7387 24.3199 16.7383 22.5823 16.8196C23.4397 15.689 24.3179 14.6387 25.2011 13.6858V13.6858ZM17.3885 21.2597C16.9556 22.0106 16.5403 22.7715 16.1429 23.5418C15.5939 22.2397 15.1242 20.9595 14.7406 19.7232C15.9997 19.4414 17.3425 19.2111 18.7414 19.0363C18.2731 19.7668 17.822 20.5081 17.3885 21.2597V21.2597ZM18.7817 32.5254C17.3364 32.3641 15.9734 32.1456 14.7146 31.8715C15.1043 30.6134 15.5843 29.3056 16.145 27.9756C16.5441 28.7465 16.9613 29.5079 17.3962 30.2591C17.8399 31.0254 18.3019 31.7811 18.7817 32.5254V32.5254ZM25.2533 37.8746C24.3597 36.9104 23.4686 35.844 22.5981 34.697C23.443 34.7302 24.3045 34.747 25.18 34.747C26.0796 34.747 26.9688 34.7269 27.844 34.6878C26.9846 35.8558 26.1169 36.9237 25.2533 37.8746ZM34.2513 27.9078C34.8411 29.2523 35.3384 30.553 35.7333 31.7899C34.4537 32.0819 33.0723 32.317 31.6167 32.4916C32.0831 31.7522 32.5348 31.0035 32.9715 30.246C33.4154 29.4762 33.8421 28.6966 34.2513 27.9078V27.9078ZM31.3384 29.3043C30.6699 30.4655 29.9638 31.6048 29.2213 32.7201C27.9119 32.8137 26.5589 32.8619 25.18 32.8619C23.8068 32.8619 22.471 32.8192 21.1845 32.7358C20.4227 31.623 19.7033 30.4818 19.0277 29.3146C18.3554 28.1536 17.7273 26.9675 17.145 25.7589C17.7259 24.5499 18.352 23.3632 19.0221 22.2012V22.2016C19.6919 21.0395 20.4057 19.9031 21.1618 18.7951C22.4743 18.6959 23.8199 18.644 25.1802 18.644C26.5466 18.644 27.894 18.6963 29.206 18.7963C29.9545 19.9026 30.6637 21.035 31.3323 22.1913C32.0047 23.3506 32.6392 24.5315 33.2348 25.7322C32.6453 26.945 32.0128 28.1365 31.3385 29.3043H31.3384ZM35.2275 8.25202C36.7051 9.10433 37.2799 12.5411 36.3514 17.0481C36.2906 17.3417 36.2244 17.6342 36.153 17.9254C34.3222 17.503 32.334 17.1886 30.2525 16.9933C29.0398 15.2666 27.7834 13.6965 26.5221 12.3376C26.8527 12.019 27.191 11.7086 27.537 11.4068C30.795 8.57135 33.84 7.45186 35.2275 8.25202V8.25202Z" fill="white"/>
<path d="M24.9407 21C27.1171 21 28.8813 22.7644 28.8813 24.9406C28.8813 27.1171 27.1171 28.8815 24.9407 28.8815C22.7644 28.8815 21 27.1171 21 24.9406C21 22.7644 22.7644 21 24.9407 21" fill="#53C1DE"/>
</svg>
