<svg width="50" height="50" viewBox="0 0 50 50" fill="none" xmlns="http://www.w3.org/2000/svg">
<g clip-path="url(#clip0)">
<path d="M34.6447 34.151C36.4898 33.96 37.8896 32.3693 37.826 30.4604C37.7625 28.5516 36.1717 27.0244 34.2629 27.0244H34.1357C32.1631 27.0881 30.6361 28.7424 30.6998 30.7148C30.7635 31.6693 31.1451 32.4965 31.7178 33.0691C29.5545 37.3324 26.2459 40.4502 21.283 43.059C17.9107 44.8406 14.4113 45.4769 10.9119 45.0316C8.04863 44.6498 5.82168 43.3773 4.42168 41.2773C2.38574 38.1596 2.19492 34.7871 3.91289 31.4148C5.12187 28.9969 7.03047 27.2152 8.23945 26.3244C7.98496 25.4973 7.60312 24.0975 7.4123 23.0795C-1.81367 29.7605 -0.859182 38.7959 1.94043 43.059C4.04004 46.2406 8.30312 48.2131 13.0115 48.2131C14.284 48.2131 15.5564 48.0857 16.8291 47.7678C24.9734 46.177 31.1453 41.341 34.6447 34.151V34.151ZM45.8432 26.2609C41.0074 20.5978 33.8812 17.4801 25.7369 17.4801H24.7189C24.1463 16.3348 22.9373 15.5711 21.6012 15.5711H21.4738C19.5016 15.6348 17.9746 17.2891 18.0381 19.2617C18.1018 21.1705 19.6924 22.6977 21.6012 22.6977H21.7283C23.1281 22.634 24.3371 21.7432 24.8461 20.5342H25.9914C30.8271 20.5342 35.4082 21.934 39.5441 24.6701C42.7254 26.7699 45.016 29.5061 46.2885 32.8146C47.3701 35.4871 47.3064 38.0959 46.1611 40.323C44.3797 43.6953 41.3893 45.5406 37.4443 45.5406C34.8992 45.5406 32.4814 44.7769 31.2088 44.2043C30.509 44.8406 29.2363 45.8586 28.3455 46.4951C31.0816 47.7676 33.8812 48.4676 36.5535 48.4676C42.6617 48.4676 47.1793 45.0951 48.8973 41.7228C50.7424 38.0322 50.615 31.6693 45.8432 26.2609V26.2609ZM13.5205 35.2324C13.5842 37.1414 15.1748 38.6684 17.0836 38.6684H17.2109C19.1834 38.6049 20.7103 36.9504 20.6467 34.9779C20.5832 33.0689 18.9924 31.542 17.0836 31.542H16.9564C16.8291 31.542 16.6381 31.542 16.5111 31.6055C13.9023 27.2787 12.8207 22.5703 13.2025 17.4799C13.4568 13.6621 14.7295 10.3533 16.9564 7.61719C18.8016 5.26289 22.3646 4.11758 24.7826 4.0541C31.527 3.92676 34.39 12.3258 34.5811 15.6982C35.4082 15.8891 36.808 16.3346 37.7625 16.6527C36.9988 6.34492 30.6361 1 24.5281 1C18.8016 1 13.5205 5.13594 11.4207 11.2443C8.49394 19.3889 10.4027 27.2152 13.9658 33.3873C13.6478 33.8326 13.4568 34.5326 13.5205 35.2326V35.2324Z" fill="#764ABC"/>
</g>
<defs>
<clipPath id="clip0">
<rect width="50" height="50" fill="white"/>
</clipPath>
</defs>
</svg>
