<svg width="50" height="50" viewBox="0 0 50 50" fill="none" xmlns="http://www.w3.org/2000/svg">
<path d="M0.475706 17.4357C0.475706 17.4357 -0.742102 16.5484 0.719268 15.3636L4.12406 12.2861C4.12406 12.2861 5.0983 11.2501 6.12836 12.1528L37.5478 36.1979V47.728C37.5478 47.728 37.5326 49.5386 35.234 49.3386L0.475706 17.4357Z" fill="#2489CA"/>
<path d="M8.57423 24.8679L0.47581 32.3101C0.47581 32.3101 -0.356359 32.9359 0.47581 34.054L4.23579 37.511C4.23579 37.511 5.12885 38.4804 6.44814 37.3777L15.0337 30.7971L8.57423 24.8679Z" fill="#1070B3"/>
<path d="M22.7921 24.9294L37.6443 13.4659L37.5479 1.99724C37.5479 1.99724 36.9136 -0.505756 34.7977 0.797034L15.0337 18.9797L22.7921 24.9294Z" fill="#0877B9"/>
<path d="M35.2338 49.3541C36.0964 50.2465 37.1417 49.9542 37.1417 49.9542L48.7162 44.1891C50.1979 43.1684 49.9898 41.9015 49.9898 41.9015V7.47506C49.9898 5.96197 48.4574 5.43881 48.4574 5.43881L38.4255 0.550783C36.2334 -0.818684 34.7974 0.79698 34.7974 0.79698C34.7974 0.79698 36.6444 -0.546842 37.5476 1.99719V47.5179C37.5476 47.8307 37.4817 48.1385 37.3497 48.4155C37.0859 48.954 36.5125 49.4567 35.1373 49.2464L35.2338 49.3541Z" fill="#3C99D4"/>
</svg>
